<svg width="148" height="60" viewBox="0 0 148 60" fill="none" xmlns="http://www.w3.org/2000/svg">
<path d="M46.4848 27.7921C46.2443 27.5192 45.9032 27.3636 45.5456 27.3636H40.4546H2.27276C1.91516 27.3636 1.57403 27.5192 1.33348 27.7933C1.09294 28.0662 0.973263 28.4326 1.00512 28.8017L3.34054 55.4053C3.51999 57.4538 5.15549 59 7.14214 59H37.9091H40.6759C42.6639 59 44.2981 57.4538 44.4775 55.4027L46.8129 28.8005C46.8449 28.4313 46.7266 28.0663 46.4848 27.7921ZM36.7471 56.3637H7.14226C6.4804 56.3637 5.93571 55.8482 5.87593 55.1654L3.6664 30.0001H39.061L36.7471 56.3637ZM41.9424 55.1641C41.8826 55.8482 41.3378 56.3637 40.6761 56.3637H39.3028L41.6166 30.0001H44.1519L41.9424 55.1641Z" fill="white" stroke="white" stroke-width="0.136364"/>
<path d="M16.2728 51.091C16.9757 51.091 17.5455 50.5008 17.5455 49.7728C17.5455 49.0448 16.9757 48.4546 16.2728 48.4546C15.5698 48.4546 15 49.0448 15 49.7728C15 50.5008 15.5698 51.091 16.2728 51.091Z" fill="white" stroke="white" stroke-width="0.136364"/>
<path d="M21.3637 51.091C22.0666 51.091 22.6365 50.5008 22.6365 49.7728C22.6365 49.0448 22.0666 48.4546 21.3637 48.4546C20.6608 48.4546 20.0909 49.0448 20.0909 49.7728C20.0909 50.5008 20.6608 51.091 21.3637 51.091Z" fill="white" stroke="white" stroke-width="0.136364"/>
<path d="M26.4547 51.091C27.1576 51.091 27.7274 50.5008 27.7274 49.7728C27.7274 49.0448 27.1576 48.4546 26.4547 48.4546C25.7517 48.4546 25.1819 49.0448 25.1819 49.7728C25.1819 50.5008 25.7517 51.091 26.4547 51.091Z" fill="white" stroke="white" stroke-width="0.136364"/>
<path d="M30.2728 32.6364C29.5689 32.6364 29 33.227 29 33.9546C29 38.3165 25.5751 41.8637 21.3637 41.8637C17.1522 41.8637 13.7273 38.3165 13.7273 33.9546C13.7273 33.227 13.1584 32.6364 12.4545 32.6364C11.7507 32.6364 11.1818 33.227 11.1818 33.9546C11.1818 39.7692 15.7496 44.5 21.3635 44.5C26.9775 44.5 31.5455 39.769 31.5455 33.9546C31.5455 33.227 30.9765 32.6364 30.2728 32.6364Z" fill="white" stroke="white" stroke-width="0.136364"/>
<path d="M56.9975 52.3274L54.4521 10.1455C54.4101 9.45087 53.8539 8.9091 53.1819 8.9091H49.3638C49.3638 4.54723 45.9388 1 41.7274 1C40.3363 1 39.0343 1.3941 37.9092 2.07032C36.784 1.3941 35.482 1 34.091 1C29.8796 1 26.4546 4.54723 26.4546 8.9091H20.0909C19.4189 8.9091 18.8628 9.45087 18.8208 10.1455L18.0253 23.3274C17.982 24.0537 18.5153 24.6798 19.2152 24.7247C19.9025 24.7696 20.5211 24.2185 20.5656 23.4922L21.2859 11.5455H26.4544V14.1819C26.4544 14.9095 27.0233 15.5001 27.7272 15.5001C28.431 15.5001 28.9999 14.9095 28.9999 14.1819V11.5454H39.1818V14.1817C39.1818 14.9094 39.7508 15.5 40.4546 15.5C41.1585 15.5 41.7274 14.9094 41.7274 14.1817V11.5454H46.8947L49.2811 51.0909H48.0911C47.3872 51.0909 46.8183 51.6815 46.8183 52.4091C46.8183 53.1368 47.3872 53.7274 48.0911 53.7274H50.6364H55.7274C56.0786 53.7274 56.4146 53.5771 56.6539 53.3121C56.8957 53.0472 57.0192 52.6899 56.9975 52.3274ZM34.091 8.9091H29.0001C29.0001 6.00114 31.2833 3.63632 34.091 3.63632C34.6867 3.63632 35.2492 3.76287 35.7812 3.958C34.726 5.31441 34.091 7.036 34.091 8.9091ZM36.6364 8.9091C36.6364 7.58432 37.1265 6.38609 37.9092 5.45814C38.6919 6.38609 39.1818 7.58432 39.1818 8.9091H36.6364ZM41.7274 8.9091C41.7274 7.036 41.0923 5.31441 40.0372 3.958C40.5693 3.76287 41.1317 3.63632 41.7274 3.63632C44.5349 3.63632 46.8182 6.00114 46.8182 8.9091H41.7274ZM51.8315 51.0909L49.4451 11.5454H51.9855L54.3719 51.0909H51.8315Z" fill="white" stroke="white" stroke-width="0.136364"/>
<path d="M27.7273 20.7727C28.4302 20.7727 29.0001 20.1825 29.0001 19.4545C29.0001 18.7265 28.4302 18.1363 27.7273 18.1363C27.0244 18.1363 26.4545 18.7265 26.4545 19.4545C26.4545 20.1825 27.0244 20.7727 27.7273 20.7727Z" fill="white" stroke="white" stroke-width="0.136364"/>
<path d="M34.091 20.7727C34.7939 20.7727 35.3638 20.1825 35.3638 19.4545C35.3638 18.7265 34.7939 18.1363 34.091 18.1363C33.3881 18.1363 32.8182 18.7265 32.8182 19.4545C32.8182 20.1825 33.3881 20.7727 34.091 20.7727Z" fill="white" stroke="white" stroke-width="0.136364"/>
<path d="M40.4546 20.7727C41.1575 20.7727 41.7274 20.1825 41.7274 19.4545C41.7274 18.7265 41.1575 18.1363 40.4546 18.1363C39.7517 18.1363 39.1818 18.7265 39.1818 19.4545C39.1818 20.1825 39.7517 20.7727 40.4546 20.7727Z" fill="white" stroke="white" stroke-width="0.136364"/>
<path d="M72.3896 6.51562H75.6143L80.3623 20.0869L85.1104 6.51562H88.335L81.6572 25H79.0674L72.3896 6.51562ZM70.6504 6.51562H73.8623L74.4463 19.7441V25H70.6504V6.51562ZM86.8623 6.51562H90.0869V25H86.2783V19.7441L86.8623 6.51562ZM97.2725 23.4512L100.916 11.2637H104.839L99.3164 27.0693C99.1979 27.4163 99.0371 27.7887 98.834 28.1865C98.6393 28.5843 98.3727 28.9609 98.0342 29.3164C97.7041 29.6803 97.2852 29.9766 96.7773 30.2051C96.278 30.4336 95.6644 30.5479 94.9365 30.5479C94.5895 30.5479 94.306 30.5267 94.0859 30.4844C93.8659 30.4421 93.6035 30.3828 93.2988 30.3066V27.6279C93.3919 27.6279 93.4893 27.6279 93.5908 27.6279C93.6924 27.6364 93.7897 27.6406 93.8828 27.6406C94.3652 27.6406 94.7588 27.5856 95.0635 27.4756C95.3682 27.3656 95.6136 27.1963 95.7998 26.9678C95.986 26.7477 96.1341 26.46 96.2441 26.1045L97.2725 23.4512ZM95.749 11.2637L98.7324 21.2168L99.2529 25.0889L96.7646 25.3555L91.8262 11.2637H95.749Z" fill="white"/>
<path d="M77.6719 44.2793C77.6719 44.0254 77.6328 43.7975 77.5547 43.5957C77.4831 43.3874 77.3464 43.1986 77.1445 43.0293C76.9427 42.8535 76.6595 42.681 76.2949 42.5117C75.9303 42.3424 75.4583 42.1667 74.8789 41.9844C74.2344 41.776 73.6224 41.5417 73.043 41.2812C72.4701 41.0208 71.9622 40.7181 71.5195 40.373C71.0833 40.0215 70.7383 39.6146 70.4844 39.1523C70.237 38.6901 70.1133 38.153 70.1133 37.541C70.1133 36.9486 70.2435 36.4115 70.5039 35.9297C70.7643 35.4414 71.1289 35.0247 71.5977 34.6797C72.0664 34.3281 72.6198 34.0579 73.2578 33.8691C73.9023 33.6803 74.6087 33.5859 75.377 33.5859C76.4251 33.5859 77.3398 33.7747 78.1211 34.1523C78.9023 34.5299 79.5078 35.0475 79.9375 35.7051C80.3737 36.3626 80.5918 37.1146 80.5918 37.9609H77.6816C77.6816 37.5443 77.5938 37.1797 77.418 36.8672C77.2487 36.5482 76.9883 36.2975 76.6367 36.1152C76.2917 35.9329 75.8555 35.8418 75.3281 35.8418C74.8203 35.8418 74.3971 35.9199 74.0586 36.0762C73.7201 36.2259 73.4661 36.431 73.2969 36.6914C73.1276 36.9453 73.043 37.2318 73.043 37.5508C73.043 37.7917 73.1016 38.0098 73.2188 38.2051C73.3424 38.4004 73.5247 38.5827 73.7656 38.752C74.0065 38.9212 74.3027 39.0807 74.6543 39.2305C75.0059 39.3802 75.4128 39.5267 75.875 39.6699C76.6497 39.9043 77.3301 40.168 77.916 40.4609C78.5085 40.7539 79.0033 41.0827 79.4004 41.4473C79.7975 41.8118 80.097 42.2253 80.2988 42.6875C80.5007 43.1497 80.6016 43.6738 80.6016 44.2598C80.6016 44.8783 80.4811 45.4316 80.2402 45.9199C79.9993 46.4082 79.651 46.8216 79.1953 47.1602C78.7396 47.4987 78.196 47.7559 77.5645 47.9316C76.9329 48.1074 76.2266 48.1953 75.4453 48.1953C74.7422 48.1953 74.0488 48.1042 73.3652 47.9219C72.6816 47.7331 72.0599 47.4499 71.5 47.0723C70.9466 46.6947 70.5039 46.2129 70.1719 45.627C69.8398 45.041 69.6738 44.3477 69.6738 43.5469H72.6133C72.6133 43.9896 72.6816 44.3639 72.8184 44.6699C72.9551 44.9759 73.1471 45.2233 73.3945 45.4121C73.6484 45.6009 73.9479 45.7376 74.293 45.8223C74.6445 45.9069 75.0286 45.9492 75.4453 45.9492C75.9531 45.9492 76.3698 45.8776 76.6953 45.7344C77.0273 45.5911 77.2715 45.3926 77.4277 45.1387C77.5905 44.8848 77.6719 44.5983 77.6719 44.2793ZM85.1621 33V48H82.3496V33H85.1621ZM84.7617 42.3457H83.9902C83.9967 41.61 84.0944 40.9329 84.2832 40.3145C84.472 39.6895 84.7422 39.1491 85.0938 38.6934C85.4453 38.2311 85.8652 37.873 86.3535 37.6191C86.8483 37.3652 87.3952 37.2383 87.9941 37.2383C88.515 37.2383 88.987 37.3132 89.4102 37.4629C89.8398 37.6061 90.2077 37.8405 90.5137 38.166C90.8262 38.485 91.0671 38.9049 91.2363 39.4258C91.4056 39.9466 91.4902 40.5781 91.4902 41.3203V48H88.6582V41.3008C88.6582 40.832 88.5898 40.4642 88.4531 40.1973C88.3229 39.9238 88.1309 39.7318 87.877 39.6211C87.6296 39.5039 87.3236 39.4453 86.959 39.4453C86.5553 39.4453 86.2103 39.5202 85.9238 39.6699C85.6439 39.8197 85.4193 40.028 85.25 40.2949C85.0807 40.5553 84.957 40.8613 84.8789 41.2129C84.8008 41.5645 84.7617 41.9421 84.7617 42.3457ZM93.1797 42.8242V42.6191C93.1797 41.8444 93.2904 41.1315 93.5117 40.4805C93.7331 39.8229 94.0553 39.2533 94.4785 38.7715C94.9017 38.2897 95.4225 37.9154 96.041 37.6484C96.6595 37.375 97.3691 37.2383 98.1699 37.2383C98.9707 37.2383 99.6836 37.375 100.309 37.6484C100.934 37.9154 101.458 38.2897 101.881 38.7715C102.311 39.2533 102.636 39.8229 102.857 40.4805C103.079 41.1315 103.189 41.8444 103.189 42.6191V42.8242C103.189 43.5924 103.079 44.3053 102.857 44.9629C102.636 45.6139 102.311 46.1836 101.881 46.6719C101.458 47.1536 100.937 47.528 100.318 47.7949C99.6999 48.0618 98.9902 48.1953 98.1895 48.1953C97.3887 48.1953 96.6758 48.0618 96.0508 47.7949C95.4323 47.528 94.9082 47.1536 94.4785 46.6719C94.0553 46.1836 93.7331 45.6139 93.5117 44.9629C93.2904 44.3053 93.1797 43.5924 93.1797 42.8242ZM95.9922 42.6191V42.8242C95.9922 43.2669 96.0312 43.6803 96.1094 44.0645C96.1875 44.4486 96.3112 44.7871 96.4805 45.0801C96.6562 45.3665 96.8841 45.5911 97.1641 45.7539C97.444 45.9167 97.7858 45.998 98.1895 45.998C98.5801 45.998 98.9154 45.9167 99.1953 45.7539C99.4753 45.5911 99.6999 45.3665 99.8691 45.0801C100.038 44.7871 100.162 44.4486 100.24 44.0645C100.325 43.6803 100.367 43.2669 100.367 42.8242V42.6191C100.367 42.1895 100.325 41.7858 100.24 41.4082C100.162 41.0241 100.035 40.6855 99.8594 40.3926C99.6901 40.0931 99.4655 39.8587 99.1855 39.6895C98.9056 39.5202 98.5671 39.4355 98.1699 39.4355C97.7728 39.4355 97.4342 39.5202 97.1543 39.6895C96.8809 39.8587 96.6562 40.0931 96.4805 40.3926C96.3112 40.6855 96.1875 41.0241 96.1094 41.4082C96.0312 41.7858 95.9922 42.1895 95.9922 42.6191ZM107.73 39.4648V52.0625H104.918V37.4336H107.525L107.73 39.4648ZM114.42 42.5996V42.8047C114.42 43.5729 114.329 44.2858 114.146 44.9434C113.971 45.6009 113.71 46.1738 113.365 46.6621C113.02 47.1439 112.59 47.5215 112.076 47.7949C111.568 48.0618 110.982 48.1953 110.318 48.1953C109.674 48.1953 109.114 48.0651 108.639 47.8047C108.163 47.5443 107.763 47.1797 107.438 46.7109C107.118 46.2357 106.861 45.6855 106.666 45.0605C106.471 44.4355 106.321 43.765 106.217 43.0488V42.5117C106.321 41.7435 106.471 41.0404 106.666 40.4023C106.861 39.7578 107.118 39.2012 107.438 38.7324C107.763 38.2572 108.16 37.8893 108.629 37.6289C109.104 37.3685 109.661 37.2383 110.299 37.2383C110.969 37.2383 111.559 37.3652 112.066 37.6191C112.581 37.873 113.01 38.2376 113.355 38.7129C113.707 39.1882 113.971 39.7546 114.146 40.4121C114.329 41.0697 114.42 41.7988 114.42 42.5996ZM111.598 42.8047V42.5996C111.598 42.1504 111.559 41.737 111.48 41.3594C111.409 40.9753 111.292 40.64 111.129 40.3535C110.973 40.0671 110.764 39.8457 110.504 39.6895C110.25 39.5267 109.941 39.4453 109.576 39.4453C109.192 39.4453 108.863 39.5072 108.59 39.6309C108.323 39.7546 108.105 39.9336 107.936 40.168C107.766 40.4023 107.639 40.6823 107.555 41.0078C107.47 41.3333 107.418 41.7012 107.398 42.1113V43.4688C107.431 43.9505 107.522 44.3835 107.672 44.7676C107.822 45.1452 108.053 45.4447 108.365 45.666C108.678 45.8874 109.088 45.998 109.596 45.998C109.967 45.998 110.279 45.9167 110.533 45.7539C110.787 45.5846 110.992 45.3535 111.148 45.0605C111.311 44.7676 111.425 44.429 111.49 44.0449C111.562 43.6608 111.598 43.2474 111.598 42.8047Z" fill="white"/>
</svg>
